<svg width="108" height="30" viewBox="0 0 108 30" fill="none" xmlns="http://www.w3.org/2000/svg">
<g clip-path="url(#clip0_996_714)">
<rect width="30" height="30" rx="15" fill="white"/>
<g clip-path="url(#clip1_996_714)">
<path d="M14.9176 31.3001C23.8209 31.3001 31.0384 24.0826 31.0384 15.1793C31.0384 6.27609 23.8209 -0.941406 14.9176 -0.941406C6.01438 -0.941406 -1.20312 6.27609 -1.20312 15.1793C-1.20312 24.0826 6.01438 31.3001 14.9176 31.3001Z" fill="#FF492C"/>
<path d="M21.8922 11.4105H19.1387C19.2129 10.9784 19.4805 10.7366 20.0222 10.4626L20.5283 10.2046C21.4343 9.74037 21.918 9.21483 21.918 8.35721C21.918 7.81877 21.7084 7.39319 21.2925 7.08689C20.8766 6.7806 20.3865 6.62906 19.8126 6.62906C19.3686 6.62384 18.9328 6.74821 18.5584 6.98694C18.1812 7.21908 17.9007 7.51893 17.7266 7.89293L18.5229 8.69252C18.8324 8.06703 19.2806 7.76074 19.8706 7.76074C20.3704 7.76074 20.6767 8.01867 20.6767 8.37655C20.6767 8.6764 20.5283 8.92466 19.9544 9.21483L19.6288 9.37281C18.9227 9.73069 18.4327 10.1402 18.1489 10.6044C17.8652 11.0687 17.7266 11.6523 17.7266 12.3584V12.5518H21.8922V11.4105Z" fill="white"/>
<path d="M21.5259 13.8633H16.967L14.6875 17.8096H19.2464L21.5259 21.7592L23.8054 17.8096L21.5259 13.8633Z" fill="white"/>
<path d="M15.0786 20.4452C12.1768 20.4452 9.81354 18.0819 9.81354 15.1801C9.81354 12.2784 12.1768 9.91511 15.0786 9.91511L16.8809 6.14608C16.2874 6.02806 15.6837 5.96866 15.0786 5.96875C9.99087 5.96875 5.86719 10.0924 5.86719 15.1801C5.86719 20.2678 9.99087 24.3915 15.0786 24.3915C17.0283 24.3952 18.9282 23.7762 20.5016 22.6247L18.5091 19.1684C17.5558 19.9918 16.3382 20.445 15.0786 20.4452Z" fill="white"/>
</g>
</g>
<rect x="26.403" y="0.403018" width="29.194" height="29.194" rx="14.597" fill="white"/>
<rect x="26.403" y="0.403018" width="29.194" height="29.194" rx="14.597" stroke="white" stroke-width="0.806037"/>
<path d="M28.5586 13.0436H37.9777H43.6977V7.375L28.5586 13.0436Z" fill="#FF9D28"/>
<path d="M43.6992 7.37474V27.4118L50.8578 4.70312L43.6992 7.37474Z" fill="#68C5ED"/>
<path d="M43.6966 13.043H37.9766L43.6966 27.3943V13.043Z" fill="#044D80"/>
<path d="M28.5586 13.043L39.4506 16.725L37.9777 13.043H28.5586Z" fill="#E54747"/>
<rect x="52" width="30" height="30" rx="15" fill="url(#paint0_linear_996_714)"/>
<path d="M66.7573 6.77377L67.2884 5.85582C67.6163 5.2821 68.3474 5.08868 68.9211 5.41652C69.4948 5.74435 69.6882 6.47544 69.3604 7.04916L64.2428 15.9074H67.9441C69.144 15.9074 69.8161 17.3171 69.2948 18.294H58.4433C57.7811 18.294 57.25 17.7629 57.25 17.1007C57.25 16.4385 57.7811 15.9074 58.4433 15.9074H61.4857L65.3804 9.15716L64.1641 7.04588C63.8363 6.47216 64.0297 5.74763 64.6034 5.41324C65.1772 5.0854 65.9017 5.27882 66.2361 5.85254L66.7573 6.77377ZM62.1545 19.5234L61.007 21.5134C60.6792 22.0871 59.9481 22.2806 59.3744 21.9527C58.8007 21.6249 58.6073 20.8938 58.9351 20.3201L59.7875 18.8448C60.7513 18.5465 61.5349 18.776 62.1545 19.5234ZM72.0356 15.9139H75.1402C75.8024 15.9139 76.3335 16.445 76.3335 17.1073C76.3335 17.7695 75.8024 18.3006 75.1402 18.3006H73.4158L74.5796 20.3201C74.9074 20.8938 74.714 21.6183 74.1403 21.9527C73.5666 22.2806 72.842 22.0871 72.5076 21.5134C70.5472 18.1137 69.0752 15.5697 68.0982 13.8748C67.0983 12.1503 67.813 10.4193 68.5178 9.83251C69.3014 11.1767 70.4718 13.206 72.0356 15.9139Z" fill="white"/>
<rect x="78.403" y="0.403018" width="29.194" height="29.194" rx="14.597" fill="white"/>
<rect x="78.403" y="0.403018" width="29.194" height="29.194" rx="14.597" stroke="white" stroke-width="0.806037"/>
<g clip-path="url(#clip2_996_714)">
<path d="M98.6067 17.441C100.573 16.3615 102.077 15.539 102.205 15.4747C102.616 15.2562 103.041 14.6779 102.205 14.2281C101.935 14.0867 100.483 13.2899 98.6067 12.2617L96.0234 14.8578L98.6067 17.441Z" fill="#FFD400"/>
<path d="M96.0244 14.8594L87.7734 23.1746C87.9662 23.2003 88.1847 23.1489 88.4417 23.0075C88.9815 22.7119 94.7135 19.576 98.6076 17.4426L96.0244 14.8594Z" fill="#FF3333"/>
<path d="M96.0216 14.8601L98.6048 12.264C98.6048 12.264 89.0173 7.03326 88.439 6.72481C88.2205 6.59629 87.9763 6.55774 87.7578 6.59629L96.0216 14.8601Z" fill="#48FF48"/>
<path d="M96.0213 14.8614L87.7575 6.59766C87.4234 6.67477 87.1406 6.97036 87.1406 7.5744C87.1406 8.53829 87.1406 21.3902 87.1406 22.1999C87.1406 22.7525 87.3591 23.1509 87.7704 23.1895L96.0213 14.8614Z" fill="#3BCCFF"/>
</g>
<defs>
<linearGradient id="paint0_linear_996_714" x1="67" y1="0" x2="67" y2="30" gradientUnits="userSpaceOnUse">
<stop stop-color="#18BFFB"/>
<stop offset="1" stop-color="#2072F3"/>
</linearGradient>
<clipPath id="clip0_996_714">
<rect width="30" height="30" rx="15" fill="white"/>
</clipPath>
<clipPath id="clip1_996_714">
<rect width="32.2415" height="32.2415" fill="white" transform="translate(-1.20312 -0.941406)"/>
</clipPath>
<clipPath id="clip2_996_714">
<rect width="15.5379" height="16.6047" fill="white" transform="translate(87.1406 6.58203)"/>
</clipPath>
</defs>
</svg>
