<?xml version="1.0"?><svg xmlns="http://www.w3.org/2000/svg" width="390" height="390"><rect x="0" y="0" width="100%" height="100%" fill="rgb(162, 155, 254)" /><circle cx="0" cy="0" r="65" fill="#222" style="opacity:0.098;" /><circle cx="390" cy="0" r="65" fill="#222" style="opacity:0.098;" /><circle cx="0" cy="390" r="65" fill="#222" style="opacity:0.098;" /><circle cx="390" cy="390" r="65" fill="#222" style="opacity:0.098;" /><circle cx="65" cy="0" r="65" fill="#ddd" style="opacity:0.037333333333333;" /><circle cx="65" cy="390" r="65" fill="#ddd" style="opacity:0.037333333333333;" /><circle cx="130" cy="0" r="65" fill="#ddd" style="opacity:0.124;" /><circle cx="130" cy="390" r="65" fill="#ddd" style="opacity:0.124;" /><circle cx="195" cy="0" r="65" fill="#222" style="opacity:0.15;" /><circle cx="195" cy="390" r="65" fill="#222" style="opacity:0.15;" /><circle cx="260" cy="0" r="65" fill="#ddd" style="opacity:0.124;" /><circle cx="260" cy="390" r="65" fill="#ddd" style="opacity:0.124;" /><circle cx="325" cy="0" r="65" fill="#ddd" style="opacity:0.14133333333333;" /><circle cx="325" cy="390" r="65" fill="#ddd" style="opacity:0.14133333333333;" /><circle cx="0" cy="65" r="65" fill="#222" style="opacity:0.11533333333333;" /><circle cx="390" cy="65" r="65" fill="#222" style="opacity:0.11533333333333;" /><circle cx="65" cy="65" r="65" fill="#222" style="opacity:0.046;" /><circle cx="130" cy="65" r="65" fill="#222" style="opacity:0.098;" /><circle cx="195" cy="65" r="65" fill="#222" style="opacity:0.13266666666667;" /><circle cx="260" cy="65" r="65" fill="#222" style="opacity:0.063333333333333;" /><circle cx="325" cy="65" r="65" fill="#222" style="opacity:0.080666666666667;" /><circle cx="0" cy="130" r="65" fill="#222" style="opacity:0.13266666666667;" /><circle cx="390" cy="130" r="65" fill="#222" style="opacity:0.13266666666667;" /><circle cx="65" cy="130" r="65" fill="#222" style="opacity:0.098;" /><circle cx="130" cy="130" r="65" fill="#222" style="opacity:0.028666666666667;" /><circle cx="195" cy="130" r="65" fill="#ddd" style="opacity:0.054666666666667;" /><circle cx="260" cy="130" r="65" fill="#ddd" style="opacity:0.14133333333333;" /><circle cx="325" cy="130" r="65" fill="#222" style="opacity:0.13266666666667;" /><circle cx="0" cy="195" r="65" fill="#ddd" style="opacity:0.089333333333333;" /><circle cx="390" cy="195" r="65" fill="#ddd" style="opacity:0.089333333333333;" /><circle cx="65" cy="195" r="65" fill="#222" style="opacity:0.11533333333333;" /><circle cx="130" cy="195" r="65" fill="#222" style="opacity:0.028666666666667;" /><circle cx="195" cy="195" r="65" fill="#ddd" style="opacity:0.054666666666667;" /><circle cx="260" cy="195" r="65" fill="#222" style="opacity:0.13266666666667;" /><circle cx="325" cy="195" r="65" fill="#ddd" style="opacity:0.02;" /><circle cx="0" cy="260" r="65" fill="#ddd" style="opacity:0.14133333333333;" /><circle cx="390" cy="260" r="65" fill="#ddd" style="opacity:0.14133333333333;" /><circle cx="65" cy="260" r="65" fill="#222" style="opacity:0.046;" /><circle cx="130" cy="260" r="65" fill="#222" style="opacity:0.080666666666667;" /><circle cx="195" cy="260" r="65" fill="#ddd" style="opacity:0.072;" /><circle cx="260" cy="260" r="65" fill="#ddd" style="opacity:0.054666666666667;" /><circle cx="325" cy="260" r="65" fill="#222" style="opacity:0.046;" /><circle cx="0" cy="325" r="65" fill="#222" style="opacity:0.13266666666667;" /><circle cx="390" cy="325" r="65" fill="#222" style="opacity:0.13266666666667;" /><circle cx="65" cy="325" r="65" fill="#ddd" style="opacity:0.14133333333333;" /><circle cx="130" cy="325" r="65" fill="#ddd" style="opacity:0.02;" /><circle cx="195" cy="325" r="65" fill="#222" style="opacity:0.080666666666667;" /><circle cx="260" cy="325" r="65" fill="#222" style="opacity:0.098;" /><circle cx="325" cy="325" r="65" fill="#222" style="opacity:0.080666666666667;" /></svg>